# xmcd
#
# Track frame offsets:
# 150
# 18107
# 41578
# 62755
# 87651
# 103810
# 111515
# 140087
# 166216
#
# Disc length: 2583 seconds
#
#
# Revision: 0
# Processed by: cddbd v1.5.2PL0 Copyright (c) Steve Scherf et al.
# Submitted via: FreeRIP 2.951 
#
DISCID=7c0a1509
DTITLE=The Shool of Trobar - Love Songs and Trance Hymns
DYEAR=2006
DGENRE=Folk
TTITLE0=Bele Aelis
TTITLE1=Voices of the Ages
TTITLE2=Elderflower Wine
TTITLE3=See My Brother's a Sailor Too
TTITLE4=Spiritual
TTITLE5=Tintagel Love Song
TTITLE6=Reverence
TTITLE7=Lumiere
TTITLE8=Love Will Abide With You
EXTD=
EXTT0=
EXTT1=
EXTT2=
EXTT3=
EXTT4=
EXTT5=
EXTT6=
EXTT7=
EXTT8=
PLAYORDER=
